<svg xmlns="http://www.w3.org/2000/svg" viewBox="0 0 512 512" width="512" height="512">
  <defs>
    <linearGradient id="bg" x1="0" y1="0" x2="1" y2="1">
      <stop offset="0%" stop-color="#1e3a5f"/>
      <stop offset="100%" stop-color="#2d5a3d"/>
    </linearGradient>
  </defs>
  <rect width="512" height="512" rx="112" fill="url(#bg)"/>

  <!-- Mountains -->
  <path d="M0 392 L112 232 L196 332 L300 176 L412 332 L512 248 L512 512 L0 512 Z"
        fill="#ffffff" opacity="0.12"/>
  <path d="M300 176 L344 240 L256 240 Z" fill="#ffffff" opacity="0.22"/>

  <!-- Winding route -->
  <path d="M132 432 C 132 360, 232 372, 240 308 C 248 244, 150 232, 168 168 C 182 118, 300 130, 356 96"
        fill="none" stroke="#ffffff" stroke-width="22" stroke-linecap="round"
        stroke-dasharray="2 40"/>

  <!-- Start dot -->
  <circle cx="132" cy="432" r="26" fill="#22c55e" stroke="#ffffff" stroke-width="10"/>

  <!-- Destination pin -->
  <g transform="translate(356 96)">
    <path d="M0 -52 C 30 -52, 46 -30, 46 -6 C 46 26, 0 64, 0 64 C 0 64, -46 26, -46 -6 C -46 -30, -30 -52, 0 -52 Z"
          fill="#ef4444" stroke="#ffffff" stroke-width="8"/>
    <circle cx="0" cy="-4" r="16" fill="#ffffff"/>
  </g>
</svg>
